PathFileType	4	(x/y/z)	S09_M20_T05
DataRate	CameraRate	NumFrames	NumMarkers	Units	OrigDataRate	OrigDataStartFrame	OrigNumFrames
240	240	4	51	mm	240	73	580
Frame#	Time	Sternum			R.Acromium			L.Acromium			Top.Head			R.ASIS			L.ASIS			R.PSIS			L.PSIS			R.Great.Tro			L.Great.Tro			R.Iliac.Crest			L.Iliac.Crest			V.Sacral			R.Thigh.Upper.Post			R.Thigh.Lower.Ant			R.Thigh.Lower.Post			R.Thigh.Upper.Ant			R.Knee.Lat			R.Knee.Med			R.Shank.Upper.Post			R.Shank.Lower.Ant			R.Shank.Lower.Post			R.Shank.Upper.Ant			R.Ankle.Lat			R.Ankle.Med			R.Heel.Upper			R.Heel.Med			R.Heel.Lat			R.Toe.Lat			R.Toe.Med			R.Toe.Tip			L.Thigh.Upper.Post			L.Thigh.Lower.Ant			L.Thigh.Lower.Post			L.Thigh.Upper.Ant			L.Knee.Lat			L.Knee.Med			L.Shank.Upper.Post			L.Shank.Lower.Ant			L.Shank.Lower.Post			L.Shank.Upper.Ant			L.Ankle.Lat			L.Ankle.Med			L.Heel.Upper			L.Heel.Med			L.Heel.Lat			L.Toe.Lat			L.Toe.Med			L.Toe.Tip			Cervical.Spine			Back			
		X1	Y1	Z1	X2	Y2	Z2	X3	Y3	Z3	X4	Y4	Z4	X5	Y5	Z5	X6	Y6	Z6	X7	Y7	Z7	X8	Y8	Z8	X9	Y9	Z9	X10	Y10	Z10	X11	Y11	Z11	X12	Y12	Z12	X13	Y13	Z13	X14	Y14	Z14	X15	Y15	Z15	X16	Y16	Z16	X17	Y17	Z17	X18	Y18	Z18	X19	Y19	Z19	X20	Y20	Z20	X21	Y21	Z21	X22	Y22	Z22	X23	Y23	Z23	X24	Y24	Z24	X25	Y25	Z25	X26	Y26	Z26	X27	Y27	Z27	X28	Y28	Z28	X29	Y29	Z29	X30	Y30	Z30	X31	Y31	Z31	X32	Y32	Z32	X33	Y33	Z33	X34	Y34	Z34	X35	Y35	Z35	X36	Y36	Z36	X37	Y37	Z37	X38	Y38	Z38	X39	Y39	Z39	X40	Y40	Z40	X41	Y41	Z41	X42	Y42	Z42	X43	Y43	Z43	X44	Y44	Z44	X45	Y45	Z45	X46	Y46	Z46	X47	Y47	Z47	X48	Y48	Z48	X49	Y49	Z49	X50	Y50	Z50	X51	Y51	Z51	

73	0.3	-401.08	1189.3	250.61	-553.8	1422.4	379.17	-547.38	1426.8	81.89	-572.49	1725.1	217.65	-456.85	1006	358.83	-420.61	1021.9	114.74	-663.79	1031.5	248.38	-643.45	1040.6	162.12	-552.57	911.37	412.24	-472.03	931.77	34.375	-556.78	1080.8	393.49	-524.27	1113.3	65.768	-671.86	1002.2	195.62	-521.9	665.66	413.26	-434.34	570.59	407.33	-513.41	572.37	396.58	-449.93	659.32	420.02	-462.11	489.07	401.09	-444.26	469.83	279.82	-630.46	419.44	385.48	-632.42	328.47	380.51	-688.58	371.56	369.42	-580.69	379.13	396.47	-813.89	234.84	341.23	NaN	NaN	NaN	-856.66	265.04	274.36	-865.89	234.31	244.05	-886.01	246.16	305.58	-809.3	122.96	390.05	-749.57	84.277	302.94	-719.54	63.062	357.82	-497.75	660.86	81.405	-403.3	581.59	106.88	-472.26	577.66	110	-425.33	661.48	73.593	-408.68	503.49	119.26	-415.75	523.93	251.57	-457.83	372.72	104.09	-401.31	281.05	129.64	-462.29	296.28	112.94	-397.85	358.59	121.98	-460.86	100.79	142.53	-454.25	95.574	236.58	-536.84	69.674	190.66	-524.66	46.029	224.96	-534.96	39.564	163.94	-359.67	43.662	117.58	-325.78	46.023	229.28	-274.63	65.4	170.85	-634.81	1467.8	239.55	-661.41	1198.2	218.27
74	0.30417	-396.48	1190.5	250.72	-549.01	1423.6	379.14	-542.04	1428.2	81.909	-566.93	1726.2	217.87	-452.15	1007.4	358.42	-416.21	1022.8	114.3	-659.2	1032.6	248.43	-638.94	1041.7	162.16	-547.48	912.86	412.42	-468.08	932.36	34.186	-551.87	1082.2	393.3	-519.91	1114.2	65.483	-667.32	1003.2	195.73	-513.91	667.06	413.63	-425.08	573.13	407.38	-504.3	573.91	396.87	-441.74	661.61	420.17	-451.95	491.25	400.93	-433.87	472.27	279.65	-619.52	419.65	385.25	-620.31	328.64	380.91	-677.01	370.94	369.48	-569.25	380.06	396.56	-800.37	232.11	342.02	NaN	NaN	NaN	-844.13	261.08	275.17	-852.75	229.95	245.07	-872.91	241.7	306.63	-793.13	120.7	391.35	-732.78	82.952	304.2	-702.1	62.735	359.06	-495.65	661.7	81.284	-401.87	581.62	106.51	-470.88	578.25	109.64	-423.29	661.73	73.411	-407.77	503.56	118.92	-414.74	523.96	251.21	-457.31	372.76	103.81	-400.94	281	129.45	-461.91	296.34	112.74	-397.34	358.52	121.71	-460.75	100.84	142.55	-454.13	95.617	236.6	-536.79	69.766	190.72	-524.63	46.068	224.97	-534.92	39.688	163.96	-359.62	43.586	117.53	-325.71	45.871	229.23	-274.54	65.125	170.8	-629.67	1469	239.41	-656.61	1199.5	217.85
75	0.30833	-391.89	1191.6	250.83	-544.24	1424.7	379.13	-536.72	1429.4	81.93	-561.37	1727.3	218.1	-447.44	1008.8	357.99	-411.82	1023.5	113.84	-654.61	1033.6	248.49	-634.45	1042.6	162.22	-542.33	914.32	412.61	-464.13	932.91	33.992	-546.91	1083.5	393.1	-515.62	1114.9	65.195	-662.78	1004.2	195.87	-505.96	668.46	414	-415.9	575.68	407.38	-495.25	575.46	397.14	-433.61	663.9	420.31	-441.87	493.45	400.72	-423.53	474.74	279.43	-608.61	419.81	385.01	-608.17	328.77	381.29	-665.42	370.22	369.52	-557.83	380.97	396.63	-786.72	229.26	342.81	NaN	NaN	NaN	-831.42	256.93	275.97	-839.45	225.4	246.09	-859.64	237.09	307.66	-776.83	118.41	392.69	-715.86	81.58	305.52	-684.57	62.395	360.37	-493.57	662.53	81.199	-400.46	581.64	106.15	-469.53	578.83	109.32	-421.28	661.96	73.246	-406.9	503.61	118.58	-413.71	523.97	250.86	-456.84	372.79	103.57	-400.61	280.95	129.24	-461.58	296.4	112.58	-396.87	358.45	121.43	-460.64	100.89	142.58	-454.01	95.65	236.63	-536.74	69.858	190.79	-524.61	46.103	224.99	-534.89	39.816	163.98	-359.57	43.516	117.48	-325.64	45.71	229.2	-274.44	64.851	170.76	-624.55	1470.2	239.28	-651.82	1200.8	217.44
76	0.3125	-387.3	1192.8	250.92	-539.48	1425.8	379.13	-531.41	1430.6	81.953	-555.82	1728.4	218.33	-442.72	1010.1	357.52	-407.45	1024.2	113.35	-650.03	1034.6	248.58	-629.97	1043.5	162.3	-537.15	915.74	412.81	-460.18	933.42	33.796	-541.91	1084.7	392.89	-511.4	1115.7	64.906	-658.25	1005.1	196.02	-498.05	669.86	414.36	-406.8	578.22	407.33	-486.26	577.02	397.4	-425.52	666.19	420.43	-431.87	495.67	400.48	-413.26	477.23	279.18	-597.74	419.9	384.75	-596.01	328.85	381.65	-653.82	369.42	369.54	-546.43	381.85	396.67	-772.94	226.29	343.59	-730.17	205.15	268.29	-818.53	252.61	276.74	-825.97	220.67	247.12	-846.19	232.32	308.66	-760.41	116.09	394.06	-698.81	80.171	306.89	-666.95	62.052	361.74	-491.52	663.34	81.15	-399.08	581.65	105.81	-468.2	579.4	109.03	-419.31	662.16	73.098	-406.07	503.65	118.24	-412.67	523.97	250.53	-456.43	372.83	103.39	-400.31	280.89	129.03	-461.29	296.46	112.45	-396.45	358.38	121.15	-460.53	100.94	142.63	-453.89	95.674	236.68	-536.69	69.951	190.87	-524.58	46.135	225.01	-534.85	39.949	164.01	-359.53	43.451	117.44	-325.57	45.541	229.17	-274.34	64.576	170.73	-619.44	1471.3	239.16	-647.03	1202	217.05
